# xmcd CD database file
#
# Track frame offsets:
#	150
#	10157
#	13898
#	18495
#	24677
#	32265
#	38951
#	45959
#	50795
#	55106
#	60012
#	64161
#	71081
#	76945
#	81275
#	85422
#	93223
#	100521
#	104869
#	109865
#	119125
#	124834
#	130772
#	138917
#	142955
#	149544
#	156424
#	163659
#	171388
#	182494
#	196400
#	214993
#	228147
#
# Disc length: 3321 seconds
#
# Revision: 1
# Processed by: cddbd v1.5.2PL0 Copyright (c) Steve Scherf et al.
# Submitted via: CDex 1.51
#
DISCID=cd0cf721
DTITLE=Domenico Cimarosa - Trente et une sonates pour piano - Deux sonates pour orgue
DYEAR=1900
DGENRE=Classique
TTITLE0=Sonate  N°07  en do majeur - Andantino    [Donatella Failoni, piano]
TTITLE1=Sonate  N°14  en do majeur - Andantino
TTITLE2=Sonate  N°19  en la majeur - Allegro
TTITLE3=Sonate  N°21  en la majeur - Allegro
TTITLE4=Sonate  N°26  en si bémol majeur - Largo
TTITLE5=Sonate  N°27  en si bémol majeur - Allegro
TTITLE6=Sonate  N°30  en ré majeur - Allegretto
TTITLE7=Sonate  N°31  en fa majeur - Allegro
TTITLE8=Sonate  N°32  en sol majeur - Allegro
TTITLE9=Sonate  N°42  en ré mineur - Andantino
TTITLE10=Sonate  N°43  en fa majeur - Allegro
TTITLE11=Sonate  N°01  en si bémol majeur - Allegro
TTITLE12=Sonate  N°02  en la mineur - Andantino
TTITLE13=Sonate  N°03  en la majeur - Minuetto
TTITLE14=Sonate  N°05  en do majeur - Allegretto
TTITLE15=Sonate  N°50  en do majeur - Allegro
TTITLE16=Sonate  N°09  en ré mineur - Andantino
TTITLE17=Sonate  N°13  en ré majeur - Allegretto
TTITLE18=Sonate  N°46  en la mineur - Andantino
TTITLE19=Sonate  N°47  en la majeur - Allegro
TTITLE20=Sonate  N°15  en sol majeur - Allegro
TTITLE21=Sonate  N°66  en do mineur - Allegro
TTITLE22=Sonate  N°67  en mi bémol majeur - Andantino grazioso
TTITLE23=Sonate  N°68  en do mineur - Allegro
TTITLE24=Sonate  N°44  en mi bémol majeur - Allegro
TTITLE25=Sonate  N°20  en la mineur - Andante
TTITLE26=Sonate  N°57  en la majeur - Allegro
TTITLE27=Sonate  N°76  en ré majeur - Rondo allegro
TTITLE28=Sonate  N°73  en la majeur - Allegro
TTITLE29=Sonate  N°74  en mi bémol majeur - Largo allegro (allegro moderato)
TTITLE30=Sonate  N°78  en si bémol majeur - Allegro brioso
TTITLE31=Sonate pour Orgue en sol mineur          [Arturo Sacchetti, orgue]
TTITLE32=Sonate pour Orgue en ré mineur
EXTD=
EXTT0=
EXTT1=
EXTT2=
EXTT3=
EXTT4=
EXTT5=
EXTT6=
EXTT7=
EXTT8=
EXTT9=
EXTT10=
EXTT11=
EXTT12=
EXTT13=
EXTT14=
EXTT15=
EXTT16=
EXTT17=
EXTT18=
EXTT19=
EXTT20=
EXTT21=
EXTT22=
EXTT23=
EXTT24=
EXTT25=
EXTT26=
EXTT27=
EXTT28=
EXTT29=
EXTT30=
EXTT31=
EXTT32=
PLAYORDER=
